<svg width="16" height="16" viewBox="0 0 16 16" fill="none" xmlns="http://www.w3.org/2000/svg">
<path fill-rule="evenodd" clip-rule="evenodd" d="M12 2.91876C11.8902 2.91876 11.7848 2.9624 11.7071 3.04008L11.7071 3.04012L3.56994 11.1763L3.37427 11.9587L4.15598 11.7638L12.2929 3.62591L12.2929 3.62587C12.3706 3.54819 12.4142 3.44283 12.4142 3.33298C12.4142 3.22312 12.3706 3.11776 12.2929 3.04008C12.2152 2.9624 12.1099 2.91876 12 2.91876ZM10.293 1.62583C10.7457 1.1731 11.3598 0.918762 12 0.918762C12.6403 0.918762 13.2544 1.17312 13.7071 1.62587C14.1599 2.07862 14.4142 2.69269 14.4142 3.33298C14.4142 3.97324 14.1599 4.58729 13.7072 5.04004C13.7072 5.04005 13.7071 5.04007 13.7071 5.04008L5.37417 13.374C5.24586 13.5024 5.08504 13.5934 4.90896 13.6373L2.24196 14.3023C1.90122 14.3872 1.54089 14.2872 1.29266 14.0388C1.04444 13.7904 0.944699 13.43 1.0299 13.0894L1.6969 10.4224C1.74087 10.2465 1.8318 10.086 1.95996 9.95783L10.2929 1.62587C10.2929 1.62585 10.2929 1.62584 10.293 1.62583ZM7.00002 13C7.00002 12.4477 7.44774 12 8.00002 12H14C14.5523 12 15 12.4477 15 13C15 13.5523 14.5523 14 14 14H8.00002C7.44774 14 7.00002 13.5523 7.00002 13Z" fill="#1B1F3B" fill-opacity="0.65"/>
</svg>
