<svg width="16" height="16" viewBox="0 0 16 16" fill="none" xmlns="http://www.w3.org/2000/svg">
<path fill-rule="evenodd" clip-rule="evenodd" d="M9 2C9 1.44772 9.44772 1 10 1H14C14.5523 1 15 1.44772 15 2V6C15 6.55228 14.5523 7 14 7C13.4477 7 13 6.55228 13 6V4.41421L7.37411 10.0401C6.98358 10.4306 6.35042 10.4306 5.95989 10.0401C5.56937 9.64958 5.56937 9.01642 5.95989 8.62589L11.5858 3H10C9.44772 3 9 2.55228 9 2ZM3.333 5C3.24468 5 3.15998 5.03508 3.09753 5.09753C3.03508 5.15998 3 5.24468 3 5.333V12.6665C3.00014 12.7549 3.03531 12.8397 3.09783 12.9022C3.1604 12.9648 3.24525 12.9999 3.33375 13H10.6663C10.7547 12.9999 10.8396 12.9648 10.9022 12.9022C10.9648 12.8396 10.9999 12.7547 11 12.6663V8.667C11 8.11472 11.4477 7.667 12 7.667C12.5523 7.667 13 8.11472 13 8.667V12.667C12.9995 13.2854 12.7537 13.8791 12.3164 14.3164C11.8791 14.7537 11.2862 14.9995 10.6677 15H3.333C2.71459 14.9995 2.12089 14.7537 1.68361 14.3164C1.24633 13.8791 1.00046 13.2862 1 12.6677L1 5.333C1 4.71425 1.2458 4.12084 1.68332 3.68332C2.12084 3.2458 2.71425 3 3.333 3H7.333C7.88528 3 8.333 3.44772 8.333 4C8.333 4.55228 7.88528 5 7.333 5H3.333Z" fill="#1B1F3B" fill-opacity="0.65"/>
</svg>
